<svg width="264" height="68" viewBox="0 0 264 68" fill="none" xmlns="http://www.w3.org/2000/svg">
<rect width="264" height="68" rx="14" fill="#191A23"/>
<path d="M36.192 41V39.5H38.152V28.5H36.192V27H43.212C44.0253 27 44.7453 27.1467 45.372 27.44C46.012 27.7333 46.5053 28.1467 46.852 28.68C47.212 29.2 47.392 29.8133 47.392 30.52V30.68C47.392 31.3333 47.2653 31.8733 47.012 32.3C46.7586 32.7133 46.4586 33.04 46.112 33.28C45.7653 33.5067 45.4253 33.6733 45.092 33.78V34.06C45.4253 34.14 45.772 34.3 46.132 34.54C46.492 34.7667 46.792 35.0933 47.032 35.52C47.2853 35.9467 47.412 36.4867 47.412 37.14V37.34C47.412 38.1 47.2253 38.76 46.852 39.32C46.492 39.8667 45.992 40.2867 45.352 40.58C44.7253 40.86 44.0053 41 43.192 41H36.192ZM39.832 39.48H43.012C43.892 39.48 44.5653 39.2733 45.032 38.86C45.4986 38.4467 45.732 37.8867 45.732 37.18V37C45.732 36.2933 45.4986 35.7333 45.032 35.32C44.5653 34.9067 43.892 34.7 43.012 34.7H39.832V39.48ZM39.832 33.18H43.072C43.872 33.18 44.512 32.98 44.992 32.58C45.472 32.1667 45.712 31.6267 45.712 30.96V30.76C45.712 30.08 45.472 29.54 44.992 29.14C44.5253 28.7267 43.8853 28.52 43.072 28.52H39.832V33.18ZM54.6546 41.28C53.6679 41.28 52.7946 41.0733 52.0346 40.66C51.2879 40.2467 50.7013 39.6667 50.2746 38.92C49.8613 38.16 49.6546 37.2667 49.6546 36.24V35.98C49.6546 34.9667 49.8613 34.08 50.2746 33.32C50.7013 32.56 51.2879 31.9733 52.0346 31.56C52.7946 31.1467 53.6679 30.94 54.6546 30.94C55.6413 30.94 56.5079 31.1467 57.2546 31.56C58.0146 31.9733 58.6013 32.56 59.0146 33.32C59.4413 34.08 59.6546 34.9667 59.6546 35.98V36.24C59.6546 37.2667 59.4413 38.16 59.0146 38.92C58.6013 39.6667 58.0146 40.2467 57.2546 40.66C56.5079 41.0733 55.6413 41.28 54.6546 41.28ZM54.6546 39.86C55.6946 39.86 56.5213 39.5333 57.1346 38.88C57.7613 38.2133 58.0746 37.32 58.0746 36.2V36.02C58.0746 34.9 57.7613 34.0133 57.1346 33.36C56.5213 32.6933 55.6946 32.36 54.6546 32.36C53.6279 32.36 52.8013 32.6933 52.1746 33.36C51.5479 34.0133 51.2346 34.9 51.2346 36.02V36.2C51.2346 37.32 51.5479 38.2133 52.1746 38.88C52.8013 39.5333 53.6279 39.86 54.6546 39.86ZM67.0179 41.28C66.0312 41.28 65.1579 41.0733 64.3979 40.66C63.6512 40.2467 63.0646 39.6667 62.6379 38.92C62.2246 38.16 62.0179 37.2667 62.0179 36.24V35.98C62.0179 34.9667 62.2246 34.08 62.6379 33.32C63.0646 32.56 63.6512 31.9733 64.3979 31.56C65.1579 31.1467 66.0312 30.94 67.0179 30.94C68.0046 30.94 68.8712 31.1467 69.6179 31.56C70.3779 31.9733 70.9646 32.56 71.3779 33.32C71.8046 34.08 72.0179 34.9667 72.0179 35.98V36.24C72.0179 37.2667 71.8046 38.16 71.3779 38.92C70.9646 39.6667 70.3779 40.2467 69.6179 40.66C68.8712 41.0733 68.0046 41.28 67.0179 41.28ZM67.0179 39.86C68.0579 39.86 68.8846 39.5333 69.4979 38.88C70.1246 38.2133 70.4379 37.32 70.4379 36.2V36.02C70.4379 34.9 70.1246 34.0133 69.4979 33.36C68.8846 32.6933 68.0579 32.36 67.0179 32.36C65.9912 32.36 65.1646 32.6933 64.5379 33.36C63.9112 34.0133 63.5979 34.9 63.5979 36.02V36.2C63.5979 37.32 63.9112 38.2133 64.5379 38.88C65.1646 39.5333 65.9912 39.86 67.0179 39.86ZM74.8612 41V27H76.4412V35.24H76.7212L81.2012 31.22H83.4012L77.9812 35.98L83.5612 41H81.3812L76.7212 36.74H76.4412V41H74.8612ZM93.7596 41.28C93.0796 41.28 92.4596 41.16 91.8996 40.92C91.3396 40.68 90.8996 40.3333 90.5796 39.88C90.2596 39.4267 90.0996 38.8733 90.0996 38.22C90.0996 37.5533 90.2596 37.0067 90.5796 36.58C90.8996 36.14 91.3396 35.8133 91.8996 35.6C92.4596 35.3733 93.0863 35.26 93.7796 35.26H97.0796V34.54C97.0796 33.8467 96.8729 33.3 96.4596 32.9C96.0596 32.5 95.4596 32.3 94.6596 32.3C93.8729 32.3 93.2596 32.4933 92.8196 32.88C92.3796 33.2533 92.0796 33.76 91.9196 34.4L90.4396 33.92C90.5996 33.3733 90.8529 32.88 91.1996 32.44C91.5463 31.9867 92.0063 31.6267 92.5796 31.36C93.1663 31.08 93.8663 30.94 94.6796 30.94C95.9329 30.94 96.9063 31.2667 97.5996 31.92C98.2929 32.56 98.6396 33.4667 98.6396 34.64V39.06C98.6396 39.46 98.8263 39.66 99.1996 39.66H100.1V41H98.7196C98.2796 41 97.9263 40.88 97.6596 40.64C97.3929 40.3867 97.2596 40.0533 97.2596 39.64V39.54H97.0196C96.8729 39.7933 96.6729 40.06 96.4196 40.34C96.1796 40.6067 95.8463 40.8267 95.4196 41C94.9929 41.1867 94.4396 41.28 93.7596 41.28ZM93.9396 39.92C94.8729 39.92 95.6263 39.6467 96.1996 39.1C96.7863 38.54 97.0796 37.76 97.0796 36.76V36.54H93.8396C93.2129 36.54 92.6929 36.68 92.2796 36.96C91.8796 37.2267 91.6796 37.6333 91.6796 38.18C91.6796 38.7267 91.8863 39.1533 92.2996 39.46C92.7263 39.7667 93.2729 39.92 93.9396 39.92ZM111.9 41.28C110.954 41.28 110.1 41.08 109.34 40.68C108.594 40.2667 108 39.68 107.56 38.92C107.134 38.16 106.92 37.26 106.92 36.22V36C106.92 34.9467 107.134 34.0467 107.56 33.3C108 32.54 108.594 31.96 109.34 31.56C110.1 31.1467 110.954 30.94 111.9 30.94C112.834 30.94 113.627 31.1133 114.28 31.46C114.947 31.8067 115.467 32.2667 115.84 32.84C116.227 33.4133 116.474 34.0267 116.58 34.68L115.04 35C114.974 34.52 114.814 34.08 114.56 33.68C114.32 33.28 113.98 32.96 113.54 32.72C113.1 32.48 112.56 32.36 111.92 32.36C111.267 32.36 110.68 32.5067 110.16 32.8C109.654 33.0933 109.247 33.5133 108.94 34.06C108.647 34.6067 108.5 35.26 108.5 36.02V36.2C108.5 36.96 108.647 37.6133 108.94 38.16C109.247 38.7067 109.654 39.1267 110.16 39.42C110.68 39.7133 111.267 39.86 111.92 39.86C112.894 39.86 113.634 39.6067 114.14 39.1C114.66 38.5933 114.98 37.9667 115.1 37.22L116.66 37.56C116.514 38.2 116.247 38.8067 115.86 39.38C115.474 39.9533 114.947 40.4133 114.28 40.76C113.627 41.1067 112.834 41.28 111.9 41.28ZM123.873 41.28C122.887 41.28 122.013 41.0733 121.253 40.66C120.507 40.2467 119.92 39.6667 119.493 38.92C119.08 38.16 118.873 37.2667 118.873 36.24V35.98C118.873 34.9667 119.08 34.08 119.493 33.32C119.92 32.56 120.507 31.9733 121.253 31.56C122.013 31.1467 122.887 30.94 123.873 30.94C124.86 30.94 125.727 31.1467 126.473 31.56C127.233 31.9733 127.82 32.56 128.233 33.32C128.66 34.08 128.873 34.9667 128.873 35.98V36.24C128.873 37.2667 128.66 38.16 128.233 38.92C127.82 39.6667 127.233 40.2467 126.473 40.66C125.727 41.0733 124.86 41.28 123.873 41.28ZM123.873 39.86C124.913 39.86 125.74 39.5333 126.353 38.88C126.98 38.2133 127.293 37.32 127.293 36.2V36.02C127.293 34.9 126.98 34.0133 126.353 33.36C125.74 32.6933 124.913 32.36 123.873 32.36C122.847 32.36 122.02 32.6933 121.393 33.36C120.767 34.0133 120.453 34.9 120.453 36.02V36.2C120.453 37.32 120.767 38.2133 121.393 38.88C122.02 39.5333 122.847 39.86 123.873 39.86ZM131.717 41V31.22H133.257V32.88H133.537C133.75 32.4133 134.11 31.9933 134.617 31.62C135.137 31.2333 135.897 31.04 136.897 31.04C137.63 31.04 138.283 31.1933 138.857 31.5C139.443 31.8067 139.91 32.26 140.257 32.86C140.603 33.46 140.777 34.2 140.777 35.08V41H139.197V35.2C139.197 34.2267 138.95 33.52 138.457 33.08C137.977 32.64 137.323 32.42 136.497 32.42C135.55 32.42 134.777 32.7267 134.177 33.34C133.59 33.9533 133.297 34.8667 133.297 36.08V41H131.717ZM147.922 41.28C146.709 41.28 145.682 41 144.842 40.44C144.016 39.88 143.516 38.9933 143.342 37.78L144.842 37.44C144.949 38.08 145.149 38.5867 145.442 38.96C145.736 39.32 146.096 39.58 146.522 39.74C146.962 39.8867 147.429 39.96 147.922 39.96C148.656 39.96 149.236 39.8133 149.662 39.52C150.089 39.2267 150.302 38.8333 150.302 38.34C150.302 37.8333 150.096 37.48 149.682 37.28C149.282 37.0667 148.729 36.8933 148.022 36.76L147.202 36.62C146.576 36.5133 146.002 36.3467 145.482 36.12C144.962 35.8933 144.549 35.5867 144.242 35.2C143.936 34.8133 143.782 34.3267 143.782 33.74C143.782 32.86 144.122 32.1733 144.802 31.68C145.482 31.1867 146.382 30.94 147.502 30.94C148.609 30.94 149.502 31.1933 150.182 31.7C150.876 32.1933 151.322 32.8933 151.522 33.8L150.042 34.18C149.922 33.4733 149.636 32.98 149.182 32.7C148.729 32.4067 148.169 32.26 147.502 32.26C146.836 32.26 146.309 32.3867 145.922 32.64C145.536 32.88 145.342 33.24 145.342 33.72C145.342 34.1867 145.522 34.5333 145.882 34.76C146.256 34.9733 146.749 35.1333 147.362 35.24L148.182 35.38C148.876 35.5 149.496 35.6667 150.042 35.88C150.602 36.08 151.042 36.3733 151.362 36.76C151.696 37.1467 151.862 37.6533 151.862 38.28C151.862 39.24 151.502 39.98 150.782 40.5C150.076 41.02 149.122 41.28 147.922 41.28ZM158.269 41.18C157.562 41.18 156.909 41.0267 156.309 40.72C155.722 40.4133 155.256 39.96 154.909 39.36C154.576 38.7467 154.409 38.0067 154.409 37.14V31.22H155.989V37.02C155.989 37.9933 156.229 38.7 156.709 39.14C157.202 39.58 157.862 39.8 158.689 39.8C159.622 39.8 160.389 39.4933 160.989 38.88C161.589 38.2667 161.889 37.3533 161.889 36.14V31.22H163.469V41H161.929V39.34H161.649C161.436 39.8067 161.069 40.2333 160.549 40.62C160.029 40.9933 159.269 41.18 158.269 41.18ZM166.775 41V27H168.355V41H166.775ZM175.278 41C174.718 41 174.284 40.8467 173.978 40.54C173.684 40.2333 173.538 39.8133 173.538 39.28V32.6H170.598V31.22H173.538V27.74H175.118V31.22H178.318V32.6H175.118V39.04C175.118 39.44 175.311 39.64 175.698 39.64H177.878V41H175.278ZM183.818 41.28C183.138 41.28 182.518 41.16 181.958 40.92C181.398 40.68 180.958 40.3333 180.638 39.88C180.318 39.4267 180.158 38.8733 180.158 38.22C180.158 37.5533 180.318 37.0067 180.638 36.58C180.958 36.14 181.398 35.8133 181.958 35.6C182.518 35.3733 183.145 35.26 183.838 35.26H187.138V34.54C187.138 33.8467 186.932 33.3 186.518 32.9C186.118 32.5 185.518 32.3 184.718 32.3C183.932 32.3 183.318 32.4933 182.878 32.88C182.438 33.2533 182.138 33.76 181.978 34.4L180.498 33.92C180.658 33.3733 180.912 32.88 181.258 32.44C181.605 31.9867 182.065 31.6267 182.638 31.36C183.225 31.08 183.925 30.94 184.738 30.94C185.992 30.94 186.965 31.2667 187.658 31.92C188.352 32.56 188.698 33.4667 188.698 34.64V39.06C188.698 39.46 188.885 39.66 189.258 39.66H190.158V41H188.778C188.338 41 187.985 40.88 187.718 40.64C187.452 40.3867 187.318 40.0533 187.318 39.64V39.54H187.078C186.932 39.7933 186.732 40.06 186.478 40.34C186.238 40.6067 185.905 40.8267 185.478 41C185.052 41.1867 184.498 41.28 183.818 41.28ZM183.998 39.92C184.932 39.92 185.685 39.6467 186.258 39.1C186.845 38.54 187.138 37.76 187.138 36.76V36.54H183.898C183.272 36.54 182.752 36.68 182.338 36.96C181.938 37.2267 181.738 37.6333 181.738 38.18C181.738 38.7267 181.945 39.1533 182.358 39.46C182.785 39.7667 183.332 39.92 183.998 39.92ZM195.278 41C194.718 41 194.284 40.8467 193.978 40.54C193.684 40.2333 193.538 39.8133 193.538 39.28V32.6H190.598V31.22H193.538V27.74H195.118V31.22H198.318V32.6H195.118V39.04C195.118 39.44 195.311 39.64 195.698 39.64H197.878V41H195.278ZM200.877 41V31.22H202.457V41H200.877ZM201.677 29.7C201.33 29.7 201.037 29.5867 200.797 29.36C200.57 29.1333 200.457 28.8467 200.457 28.5C200.457 28.14 200.57 27.8467 200.797 27.62C201.037 27.3933 201.33 27.28 201.677 27.28C202.023 27.28 202.31 27.3933 202.537 27.62C202.763 27.8467 202.877 28.14 202.877 28.5C202.877 28.8467 202.763 29.1333 202.537 29.36C202.31 29.5867 202.023 29.7 201.677 29.7ZM210.299 41.28C209.312 41.28 208.439 41.0733 207.679 40.66C206.932 40.2467 206.346 39.6667 205.919 38.92C205.506 38.16 205.299 37.2667 205.299 36.24V35.98C205.299 34.9667 205.506 34.08 205.919 33.32C206.346 32.56 206.932 31.9733 207.679 31.56C208.439 31.1467 209.312 30.94 210.299 30.94C211.286 30.94 212.152 31.1467 212.899 31.56C213.659 31.9733 214.246 32.56 214.659 33.32C215.086 34.08 215.299 34.9667 215.299 35.98V36.24C215.299 37.2667 215.086 38.16 214.659 38.92C214.246 39.6667 213.659 40.2467 212.899 40.66C212.152 41.0733 211.286 41.28 210.299 41.28ZM210.299 39.86C211.339 39.86 212.166 39.5333 212.779 38.88C213.406 38.2133 213.719 37.32 213.719 36.2V36.02C213.719 34.9 213.406 34.0133 212.779 33.36C212.166 32.6933 211.339 32.36 210.299 32.36C209.272 32.36 208.446 32.6933 207.819 33.36C207.192 34.0133 206.879 34.9 206.879 36.02V36.2C206.879 37.32 207.192 38.2133 207.819 38.88C208.446 39.5333 209.272 39.86 210.299 39.86ZM218.142 41V31.22H219.682V32.88H219.962C220.176 32.4133 220.536 31.9933 221.042 31.62C221.562 31.2333 222.322 31.04 223.322 31.04C224.056 31.04 224.709 31.1933 225.282 31.5C225.869 31.8067 226.336 32.26 226.682 32.86C227.029 33.46 227.202 34.2 227.202 35.08V41H225.622V35.2C225.622 34.2267 225.376 33.52 224.882 33.08C224.402 32.64 223.749 32.42 222.922 32.42C221.976 32.42 221.202 32.7267 220.602 33.34C220.016 33.9533 219.722 34.8667 219.722 36.08V41H218.142Z" fill="white"/>
</svg>
