<svg width="231" height="68" viewBox="0 0 231 68" fill="none" xmlns="http://www.w3.org/2000/svg">
<rect x="0.5" y="0.5" width="230" height="67" rx="13.5" stroke="#191A23"/>
<path d="M36.8559 41V27H42.5159C43.3825 27 44.1425 27.1533 44.7959 27.46C45.4625 27.7533 45.9825 28.18 46.3559 28.74C46.7292 29.2867 46.9159 29.9467 46.9159 30.72V30.94C46.9159 31.86 46.6959 32.5867 46.2559 33.12C45.8159 33.6533 45.2959 34.0133 44.6959 34.2V34.48C45.1759 34.4933 45.5692 34.6533 45.8759 34.96C46.1959 35.2533 46.3559 35.7 46.3559 36.3V41H44.6959V36.5C44.6959 36.1 44.5825 35.7933 44.3559 35.58C44.1425 35.3667 43.8159 35.26 43.3759 35.26H38.5359V41H36.8559ZM38.5359 33.74H42.3559C43.2759 33.74 43.9825 33.52 44.4759 33.08C44.9825 32.6267 45.2359 32 45.2359 31.2V31.06C45.2359 30.26 44.9892 29.64 44.4959 29.2C44.0025 28.7467 43.2892 28.52 42.3559 28.52H38.5359V33.74ZM54.013 41.28C53.0264 41.28 52.1597 41.0733 51.413 40.66C50.6664 40.2333 50.0864 39.64 49.673 38.88C49.2597 38.12 49.053 37.24 49.053 36.24V36C49.053 34.9867 49.2597 34.1 49.673 33.34C50.0864 32.58 50.6597 31.9933 51.393 31.58C52.1264 31.1533 52.9664 30.94 53.913 30.94C54.833 30.94 55.6464 31.14 56.353 31.54C57.0597 31.9267 57.613 32.4867 58.013 33.22C58.413 33.9533 58.613 34.8133 58.613 35.8V36.52H50.633C50.673 37.5733 51.013 38.4 51.653 39C52.293 39.5867 53.093 39.88 54.053 39.88C54.893 39.88 55.5397 39.6867 55.993 39.3C56.4464 38.9133 56.793 38.4533 57.033 37.92L58.393 38.58C58.193 38.9933 57.913 39.4067 57.553 39.82C57.2064 40.2333 56.7464 40.58 56.173 40.86C55.613 41.14 54.893 41.28 54.013 41.28ZM50.653 35.22H57.013C56.9597 34.3133 56.6464 33.6067 56.073 33.1C55.513 32.5933 54.793 32.34 53.913 32.34C53.0197 32.34 52.2864 32.5933 51.713 33.1C51.1397 33.6067 50.7864 34.3133 50.653 35.22ZM69.349 45V39.46H69.069C68.909 39.7533 68.6823 40.04 68.389 40.32C68.0957 40.6 67.709 40.8267 67.229 41C66.7623 41.1867 66.189 41.28 65.509 41.28C64.6557 41.28 63.8757 41.08 63.169 40.68C62.4757 40.28 61.9223 39.7 61.509 38.94C61.0957 38.18 60.889 37.28 60.889 36.24V35.98C60.889 34.9267 61.0957 34.0267 61.509 33.28C61.9223 32.5333 62.4823 31.96 63.189 31.56C63.8957 31.1467 64.669 30.94 65.509 30.94C66.5223 30.94 67.309 31.1333 67.869 31.52C68.429 31.9067 68.8423 32.3467 69.109 32.84H69.389V31.22H70.929V45H69.349ZM65.929 39.88C66.9423 39.88 67.7623 39.56 68.389 38.92C69.029 38.2667 69.349 37.36 69.349 36.2V36.02C69.349 34.86 69.029 33.96 68.389 33.32C67.7623 32.6667 66.9423 32.34 65.929 32.34C64.929 32.34 64.1023 32.6667 63.449 33.32C62.809 33.96 62.489 34.86 62.489 36.02V36.2C62.489 37.36 62.809 38.2667 63.449 38.92C64.1023 39.56 64.929 39.88 65.929 39.88ZM77.9801 41.18C77.2734 41.18 76.6201 41.0267 76.0201 40.72C75.4334 40.4133 74.9667 39.96 74.6201 39.36C74.2867 38.7467 74.1201 38.0067 74.1201 37.14V31.22H75.7001V37.02C75.7001 37.9933 75.9401 38.7 76.4201 39.14C76.9134 39.58 77.5734 39.8 78.4001 39.8C79.3334 39.8 80.1001 39.4933 80.7001 38.88C81.3001 38.2667 81.6001 37.3533 81.6001 36.14V31.22H83.1801V41H81.6401V39.34H81.3601C81.1467 39.8067 80.7801 40.2333 80.2601 40.62C79.7401 40.9933 78.9801 41.18 77.9801 41.18ZM90.9662 41.28C89.9795 41.28 89.1128 41.0733 88.3662 40.66C87.6195 40.2333 87.0395 39.64 86.6262 38.88C86.2128 38.12 86.0062 37.24 86.0062 36.24V36C86.0062 34.9867 86.2128 34.1 86.6262 33.34C87.0395 32.58 87.6128 31.9933 88.3462 31.58C89.0795 31.1533 89.9195 30.94 90.8662 30.94C91.7862 30.94 92.5995 31.14 93.3062 31.54C94.0128 31.9267 94.5662 32.4867 94.9662 33.22C95.3662 33.9533 95.5662 34.8133 95.5662 35.8V36.52H87.5862C87.6262 37.5733 87.9662 38.4 88.6062 39C89.2462 39.5867 90.0462 39.88 91.0062 39.88C91.8462 39.88 92.4928 39.6867 92.9462 39.3C93.3995 38.9133 93.7462 38.4533 93.9862 37.92L95.3462 38.58C95.1462 38.9933 94.8662 39.4067 94.5062 39.82C94.1595 40.2333 93.6995 40.58 93.1262 40.86C92.5662 41.14 91.8462 41.28 90.9662 41.28ZM87.6062 35.22H93.9662C93.9128 34.3133 93.5995 33.6067 93.0262 33.1C92.4662 32.5933 91.7462 32.34 90.8662 32.34C89.9728 32.34 89.2395 32.5933 88.6662 33.1C88.0928 33.6067 87.7395 34.3133 87.6062 35.22ZM102.262 41.28C101.049 41.28 100.022 41 99.1821 40.44C98.3554 39.88 97.8554 38.9933 97.6821 37.78L99.1821 37.44C99.2888 38.08 99.4888 38.5867 99.7821 38.96C100.075 39.32 100.435 39.58 100.862 39.74C101.302 39.8867 101.769 39.96 102.262 39.96C102.995 39.96 103.575 39.8133 104.002 39.52C104.429 39.2267 104.642 38.8333 104.642 38.34C104.642 37.8333 104.435 37.48 104.022 37.28C103.622 37.0667 103.069 36.8933 102.362 36.76L101.542 36.62C100.915 36.5133 100.342 36.3467 99.8221 36.12C99.3021 35.8933 98.8888 35.5867 98.5821 35.2C98.2754 34.8133 98.1221 34.3267 98.1221 33.74C98.1221 32.86 98.4621 32.1733 99.1421 31.68C99.8221 31.1867 100.722 30.94 101.842 30.94C102.949 30.94 103.842 31.1933 104.522 31.7C105.215 32.1933 105.662 32.8933 105.862 33.8L104.382 34.18C104.262 33.4733 103.975 32.98 103.522 32.7C103.069 32.4067 102.509 32.26 101.842 32.26C101.175 32.26 100.649 32.3867 100.262 32.64C99.8754 32.88 99.6821 33.24 99.6821 33.72C99.6821 34.1867 99.8621 34.5333 100.222 34.76C100.595 34.9733 101.089 35.1333 101.702 35.24L102.522 35.38C103.215 35.5 103.835 35.6667 104.382 35.88C104.942 36.08 105.382 36.3733 105.702 36.76C106.035 37.1467 106.202 37.6533 106.202 38.28C106.202 39.24 105.842 39.98 105.122 40.5C104.415 41.02 103.462 41.28 102.262 41.28ZM112.254 41C111.694 41 111.261 40.8467 110.954 40.54C110.661 40.2333 110.514 39.8133 110.514 39.28V32.6H107.574V31.22H110.514V27.74H112.094V31.22H115.294V32.6H112.094V39.04C112.094 39.44 112.287 39.64 112.674 39.64H114.854V41H112.254ZM125.99 41.28C125.31 41.28 124.69 41.16 124.13 40.92C123.57 40.68 123.13 40.3333 122.81 39.88C122.49 39.4267 122.33 38.8733 122.33 38.22C122.33 37.5533 122.49 37.0067 122.81 36.58C123.13 36.14 123.57 35.8133 124.13 35.6C124.69 35.3733 125.317 35.26 126.01 35.26H129.31V34.54C129.31 33.8467 129.103 33.3 128.69 32.9C128.29 32.5 127.69 32.3 126.89 32.3C126.103 32.3 125.49 32.4933 125.05 32.88C124.61 33.2533 124.31 33.76 124.15 34.4L122.67 33.92C122.83 33.3733 123.083 32.88 123.43 32.44C123.777 31.9867 124.237 31.6267 124.81 31.36C125.397 31.08 126.097 30.94 126.91 30.94C128.163 30.94 129.137 31.2667 129.83 31.92C130.523 32.56 130.87 33.4667 130.87 34.64V39.06C130.87 39.46 131.057 39.66 131.43 39.66H132.33V41H130.95C130.51 41 130.157 40.88 129.89 40.64C129.623 40.3867 129.49 40.0533 129.49 39.64V39.54H129.25C129.103 39.7933 128.903 40.06 128.65 40.34C128.41 40.6067 128.077 40.8267 127.65 41C127.223 41.1867 126.67 41.28 125.99 41.28ZM126.17 39.92C127.103 39.92 127.857 39.6467 128.43 39.1C129.017 38.54 129.31 37.76 129.31 36.76V36.54H126.07C125.443 36.54 124.923 36.68 124.51 36.96C124.11 37.2267 123.91 37.6333 123.91 38.18C123.91 38.7267 124.117 39.1533 124.53 39.46C124.957 39.7667 125.503 39.92 126.17 39.92ZM147.611 45V39.46H147.331C147.171 39.7533 146.944 40.04 146.651 40.32C146.357 40.6 145.971 40.8267 145.491 41C145.024 41.1867 144.451 41.28 143.771 41.28C142.917 41.28 142.137 41.08 141.431 40.68C140.737 40.28 140.184 39.7 139.771 38.94C139.357 38.18 139.151 37.28 139.151 36.24V35.98C139.151 34.9267 139.357 34.0267 139.771 33.28C140.184 32.5333 140.744 31.96 141.451 31.56C142.157 31.1467 142.931 30.94 143.771 30.94C144.784 30.94 145.571 31.1333 146.131 31.52C146.691 31.9067 147.104 32.3467 147.371 32.84H147.651V31.22H149.191V45H147.611ZM144.191 39.88C145.204 39.88 146.024 39.56 146.651 38.92C147.291 38.2667 147.611 37.36 147.611 36.2V36.02C147.611 34.86 147.291 33.96 146.651 33.32C146.024 32.6667 145.204 32.34 144.191 32.34C143.191 32.34 142.364 32.6667 141.711 33.32C141.071 33.96 140.751 34.86 140.751 36.02V36.2C140.751 37.36 141.071 38.2667 141.711 38.92C142.364 39.56 143.191 39.88 144.191 39.88ZM156.242 41.18C155.535 41.18 154.882 41.0267 154.282 40.72C153.695 40.4133 153.228 39.96 152.882 39.36C152.548 38.7467 152.382 38.0067 152.382 37.14V31.22H153.962V37.02C153.962 37.9933 154.202 38.7 154.682 39.14C155.175 39.58 155.835 39.8 156.662 39.8C157.595 39.8 158.362 39.4933 158.962 38.88C159.562 38.2667 159.862 37.3533 159.862 36.14V31.22H161.442V41H159.902V39.34H159.622C159.408 39.8067 159.042 40.2333 158.522 40.62C158.002 40.9933 157.242 41.18 156.242 41.18ZM169.268 41.28C168.281 41.28 167.408 41.0733 166.648 40.66C165.901 40.2467 165.315 39.6667 164.888 38.92C164.475 38.16 164.268 37.2667 164.268 36.24V35.98C164.268 34.9667 164.475 34.08 164.888 33.32C165.315 32.56 165.901 31.9733 166.648 31.56C167.408 31.1467 168.281 30.94 169.268 30.94C170.255 30.94 171.121 31.1467 171.868 31.56C172.628 31.9733 173.215 32.56 173.628 33.32C174.055 34.08 174.268 34.9667 174.268 35.98V36.24C174.268 37.2667 174.055 38.16 173.628 38.92C173.215 39.6667 172.628 40.2467 171.868 40.66C171.121 41.0733 170.255 41.28 169.268 41.28ZM169.268 39.86C170.308 39.86 171.135 39.5333 171.748 38.88C172.375 38.2133 172.688 37.32 172.688 36.2V36.02C172.688 34.9 172.375 34.0133 171.748 33.36C171.135 32.6933 170.308 32.36 169.268 32.36C168.241 32.36 167.415 32.6933 166.788 33.36C166.161 34.0133 165.848 34.9 165.848 36.02V36.2C165.848 37.32 166.161 38.2133 166.788 38.88C167.415 39.5333 168.241 39.86 169.268 39.86ZM180.321 41C179.761 41 179.327 40.8467 179.021 40.54C178.727 40.2333 178.581 39.8133 178.581 39.28V32.6H175.641V31.22H178.581V27.74H180.161V31.22H183.361V32.6H180.161V39.04C180.161 39.44 180.354 39.64 180.741 39.64H182.921V41H180.321ZM190.048 41.28C189.062 41.28 188.195 41.0733 187.448 40.66C186.702 40.2333 186.122 39.64 185.708 38.88C185.295 38.12 185.088 37.24 185.088 36.24V36C185.088 34.9867 185.295 34.1 185.708 33.34C186.122 32.58 186.695 31.9933 187.428 31.58C188.162 31.1533 189.002 30.94 189.948 30.94C190.868 30.94 191.682 31.14 192.388 31.54C193.095 31.9267 193.648 32.4867 194.048 33.22C194.448 33.9533 194.648 34.8133 194.648 35.8V36.52H186.668C186.708 37.5733 187.048 38.4 187.688 39C188.328 39.5867 189.128 39.88 190.088 39.88C190.928 39.88 191.575 39.6867 192.028 39.3C192.482 38.9133 192.828 38.4533 193.068 37.92L194.428 38.58C194.228 38.9933 193.948 39.4067 193.588 39.82C193.242 40.2333 192.782 40.58 192.208 40.86C191.648 41.14 190.928 41.28 190.048 41.28ZM186.688 35.22H193.048C192.995 34.3133 192.682 33.6067 192.108 33.1C191.548 32.5933 190.828 32.34 189.948 32.34C189.055 32.34 188.322 32.5933 187.748 33.1C187.175 33.6067 186.822 34.3133 186.688 35.22Z" fill="black"/>
</svg>
